<mxfile host="app.diagrams.net" modified="2023-11-07T21:07:43.167Z" agent="Mozilla/5.0 (Windows NT 10.0; Win64; x64) AppleWebKit/537.36 (KHTML, like Gecko) Chrome/119.0.0.0 Safari/537.36" version="22.0.8" etag="HIXm3rch2RiEzK09fYNH" type="github">
  <diagram name="Page-1" id="SolBoLHdsCEC56DxCQ1B">
    <mxGraphModel>
      <root>
        <mxCell id="0" />
        <mxCell id="1" parent="0" />
      </root>
    </mxGraphModel>
  </diagram>
</mxfile>
